HIERARCHY
ROOT hip
{
  OFFSET 0.0 0.0 0.0
  CHANNELS 6 Xposition Yposition Zposition Zrotation Yrotation Xrotation
  JOINT torso
  {
    OFFSET 0.0 0.0 0.0
    CHANNELS 3 Zrotation Xrotation Yrotation
    JOINT neck
    {
      OFFSET -8.059630999999968 325.56260699999996 64.6221310000002
      CHANNELS 3 Zrotation Xrotation Yrotation
      JOINT head
      {
        OFFSET 34.685424000000125 375.1179809999999 232.79357900000002
        CHANNELS 3 Zrotation Xrotation Yrotation
        End Site
        {
          OFFSET 0.0 0.0 0.0
        }
      }
    }
    JOINT left_collar
    {
      OFFSET -8.059630999999968 325.56260699999996 64.6221310000002
      CHANNELS 3 Zrotation Xrotation Yrotation
      JOINT left_upper_arm
      {
        OFFSET -124.124665 -15.370300999999927 25.582641999999964
        CHANNELS 3 Zrotation Xrotation Yrotation
        JOINT left_forearm
        {
          OFFSET -268.19913399999996 105.06054699999993 114.74548300000004
          CHANNELS 3 Zrotation Xrotation Yrotation
          JOINT left_hand
          {
            OFFSET -235.82003099999991 -10.198180999999977 -38.67455999999993
            CHANNELS 3 Zrotation Xrotation Yrotation
            End Site
            {
              OFFSET 0.0 0.0 0.0
            }
          }
        }
      }
    }
    JOINT right_collar
    {
      OFFSET -8.059630999999968 325.56260699999996 64.6221310000002
      CHANNELS 3 Zrotation Xrotation Yrotation
      JOINT right_upper_arm
      {
        OFFSET 162.73931899999997 -2.8598030000000563 26.244994999999903
        CHANNELS 3 Zrotation Xrotation Yrotation
        JOINT right_forearm
        {
          OFFSET 284.6506340000001 103.07031299999994 145.84521499999994
          CHANNELS 3 Zrotation Xrotation Yrotation
          JOINT right_hand
          {
            OFFSET 226.332337 -12.198241999999937 -49.27258299999994
            CHANNELS 3 Zrotation Xrotation Yrotation
            End Site
            {
              OFFSET 0.0 0.0 0.0
            }
          }
        }
      }
    }
  }
}
MOTION
Frames: 19
Frame Time: 0.01
373.62172325722725 225.95678291526448 735.4616619587649 -0.7237745572219032 3.4236281368522685 2.2622491681459143 -0.19993959683784618 -2.693653543506468 -0.022204259866579746 0.31915836360900995 -4.5469326429988755 0.2048184595956929 0.0 0.0 0.0 -0.5957795351804045 0.052708567440132165 -1.4784287581311713 1.2224648521415227 2.7488004600535914 6.0295602245314 2.2466104477142346 -0.42446846280022904 0.8764021750860137 0.0 0.0 0.0 -0.47069301663031504 0.08433032712266152 0.38602643099641243 1.0439876449274375 0.5456925681051609 -2.92484551694602 3.8166513451875765 1.0278461357991446 10.629334668761443 0.0 0.0 0.0
373.5275230096944 225.89638114168437 735.0828014582845 -0.7173627929253541 3.4185907979836774 2.2632078181375723 -0.1965519267413165 -2.6994175141787315 -0.02308485902761924 0.31924827833314445 -4.554136242513633 0.2053840026933597 0.0 0.0 0.0 -0.591529780361075 0.05228286742496848 -1.467014207641867 1.2391978145880806 2.7545272239664107 6.028920650033924 2.181558408342206 -0.4081158162340319 0.7946786554787687 0.0 0.0 0.0 -0.47574557057681105 0.0850029129581101 0.3787131541443344 1.0367823126506797 0.545902046962794 -2.915943972576291 3.5104529537587803 0.982263107009591 10.234268330465369 0.0 0.0 0.0
373.43377516594427 225.83638897072012 734.6981257313984 -0.7113067760562464 3.413472189574702 2.2630201197007707 -0.19306206646425103 -2.705071469517818 -0.023985849231212754 0.31924470287223145 -4.561653271629019 0.20603687295763246 0.0 0.0 0.0 -0.5870261738863292 0.05183499009328543 -1.4549527617060356 1.255927504891943 2.760397549398137 6.028682519043126 2.1165449412198623 -0.39193812248872567 0.7140844369839289 0.0 0.0 0.0 -0.4809059820982979 0.0856977017113932 0.37163292585003593 1.0303977463246698 0.5452455603628903 -2.9057486976585354 3.1981206453016724 0.9335608761832351 9.831974665916052 0.0 0.0 0.0
373.33808665741003 225.77701107394876 734.3039908483579 -0.7055071135739652 3.4082997702059163 2.261922788794622 -0.18954420574824674 -2.710520317015495 -0.02488864774029069 0.31923423227170805 -4.569708327290462 0.20674069780528936 0.0 0.0 0.0 -0.5822502152702118 0.05138460899914898 -1.442376857991693 1.2727043466347796 2.7664712942749783 6.028962410714612 2.0503787284452826 -0.3756541297239025 0.6333808804061558 0.0 0.0 0.0 -0.4861397945807663 0.08640840150573194 0.36475690341182365 1.0247049468514502 0.5438444272433768 -2.894422250104083 2.878892785826094 0.8814813453238008 9.42146505827057 0.0 0.0 0.0
373.2377632428011 225.7184311724007 733.8964184266665 -0.6998476026070496 3.4031108290549343 2.260214392192844 -0.1860698269441165 -2.7156718112651292 -0.025775311126865905 0.3193100106082248 -4.578541851199409 0.2074562335099107 0.0 0.0 0.0 -0.5771781027171079 0.05095297793901045 -1.429422414719684 1.289583748287787 2.77280003513753 6.029849336074436 1.9816851229596453 -0.3589447418110357 0.5511106838170122 0.0 0.0 0.0 -0.49140696194489275 0.08712779326664226 0.35805570855696 1.0195206224987563 0.5418731057070004 -2.882201306690302 2.5522842854915098 0.825787117286854 9.002056648881974 0.0 0.0 0.0
373.12985780531466 225.6608048324987 733.471220910506 -0.6941969320360784 3.397952531510926 2.2582554799697405 -0.1827053543283389 -2.7204387375013304 -0.02662910803828131 0.3195695815848107 -4.588404269838584 0.20814223679284558 0.0 0.0 0.0 -0.571781623887868 0.050562540583554305 -1.4162271913895055 1.3066227975421079 2.779423714648654 6.031398656658852 1.9089283617573616 -0.34145961431894334 0.4656167484614145 0.0 0.0 0.0 -0.49666197063452183 0.0878477780312481 0.35150062855404535 1.0146051892273957 0.53956185590809 -2.869401135213767 2.218219899749591 0.766293918794465 8.573533376880441 0.0 0.0 0.0
373.01122381005024 225.60424959602355 733.0241330675086 -0.6884100657042032 3.3928812225940304 2.25646768123111 -0.17951036711855753 -2.7247408900894468 -0.02743496432562268 0.3201127039258441 -4.599549618166442 0.2087563120407302 0.0 0.0 0.0 -0.5660295537455147 0.050236534681611204 -1.4029300278503323 1.3238771644768927 2.786367909317533 6.033627494465742 1.8304375311560008 -0.32282487952649724 0.37506361064082683 0.0 0.0 0.0 -0.5018540684891966 0.08855943048639305 0.3450642863959603 1.0096614499771581 0.5371984909343208 -2.856418456775741 1.877149933718735 0.7029064776244404 8.136285646780108 0.0 0.0 0.0
372.87857259886977 225.54883221343763 732.5509450705484 -0.6823292335498115 3.3879608941025885 2.255331605792979 -0.17653645805460955 -2.728506768983243 -0.028179760046272335 0.3210391736518223 -4.612228831784537 0.2092557231532623 0.0 0.0 0.0 -0.5598895323395651 0.049998595759584256 -1.3896709458129186 1.341398385460831 2.793641872178129 6.036511893850581 1.7444355455137512 -0.3026519476212485 0.27746076694731986 0.0 0.0 0.0 -0.506927635233652 0.08925306307227454 0.3387207259655511 1.0043340607061422 0.5351290372183608 -2.8437324045860057 1.5301389151274638 0.6356555929400522 7.691417535946181 0.0 0.0 0.0
372.72853323949846 225.49455289397363 732.0476325651323 -0.675784514541257 3.3832607501229655 2.255383385613227 -0.1738267580936945 -2.731674926975727 -0.02885247158580517 0.32244667626591045 -4.626682917824383 0.20959817389794377 0.0 0.0 0.0 -0.5533303713580546 0.049872361765678136 -1.376592024227374 1.3592316803263673 2.8012374745353967 6.039985931902813 1.649070322067515 -0.2805472956509239 0.1706872572035256 0.0 0.0 0.0 -0.5118227533619175 0.08991830958320932 0.3324448892448535 0.9982099236461046 0.5337571058642545 -2.831903290156845 1.1789186296534533 0.5647334400412698 7.240811759779091 0.0 0.0 0.0
372.5577137267599 225.44132664952653 731.5104793363226 -0.6685940565011719 3.378851843917761 2.2572096890073374 -0.17141608525126262 -2.7341949160705745 -0.029444166373683748 0.32442867257241226 -4.643136230288965 0.20974257483268438 0.0 0.0 0.0 -0.546324717556852 0.0498810769978927 -1.3638388971825393 1.3774144239315205 2.8091291372256366 6.043942913871223 1.5424472887750411 -0.25612311480146954 0.052516925143619136 0.0 0.0 0.0 -0.5164760538225558 0.0905442404897625 0.32621149636035746 0.990819671238515 0.5335417660346986 -2.8215689039305447 0.8258985423957366 0.4905235219666447 6.78714479018057 0.0 0.0 0.0
372.36276245621616 225.38896199330281 730.9361886016362 -0.6605640424169776 3.374802806051255 2.2614410454854204 -0.1693316154516334 -2.7360277999679203 -0.02994787152984945 0.32707230599853454 -4.661790081062715 0.2096498259051139 0.0 0.0 0.0 -0.5388519778257401 0.05004719103175212 -1.3515626603061837 1.3959753486942499 2.81727479907509 6.048238718305074 1.422662352089049 -0.22900864490286174 -0.07935613000165317 0.0 0.0 0.0 -0.5208219118906818 0.0911195232779644 0.31999337985612947 0.9816404133172478 0.5349937156677562 -2.813438109193987 0.4741293530899369 0.4136213359297451 6.333847821419308 0.0 0.0 0.0
372.1404290531293 225.33713745741085 730.32197957872 -0.6514885763369646 3.3711747359149027 2.2687433298508854 -0.1675939216684243 -2.737146218727478 -0.03035834980028681 0.3304563102054112 -4.682816913152863 0.2092836495723135 0.0 0.0 0.0 -0.530901379325591 0.05039194678864065 -1.3399219040937353 1.4149344988761012 2.8256179141605346 6.052697258668906 1.287834480228293 -0.1988619872909785 -0.22729225666528766 0.0 0.0 0.0 -0.5247940524284006 0.09163263955332412 0.31375937230133283 0.9700999132544595 0.5386695671351462 -2.8082815404774086 0.12721938928681303 0.33484201487951587 5.8850138115219135 0.0 0.0 0.0
371.88762383802776 225.28537660806407 729.6656667844949 -0.6411497136113259 3.368015382964541 2.279807274199999 -0.16621819378079894 -2.737534010449829 -0.03067182424119823 0.3346488955880585 -4.706355245927296 0.20861150812014892 0.0 0.0 0.0 -0.5224749987825641 0.050934951490057216 -1.3290845214237987 1.4343038963370665 2.8340904007906813 6.057117899596719 1.1361371223881453 -0.1653821557178188 -0.39368127470770725 0.0 0.0 0.0 -0.5283275910235697 0.09207216649541601 0.30747189666139735 0.9555823324983935 0.5451641106528753 -2.806919295614449 -0.2107916409311108 0.25521209497247777 5.4452562104147715 0.0 0.0 0.0
371.60147542846283 225.23302244377658 728.9657204341433 -0.6293178851784971 3.365352796545607 2.295335911536788 -0.1652154442275587 -2.7371854150086308 -0.030885695355163053 0.339705602773825 -4.732505570447067 0.2076056300191832 0.0 0.0 0.0 -0.513590556037762 0.05169372484907259 -1.3192288756612838 1.4540888222151593 2.842616393361171 6.061284521584499 0.9658277742962532 -0.12832109917903994 -0.5809178003119784 0.0 0.0 0.0 -0.5313614922912813 0.0924271239451582 0.30108445381954546 0.9374356309706794 0.5551004917461746 -2.810205618408291 -0.5355923901840991 0.1759440812199234 5.019530125916031 0.0 0.0 0.0
371.2793861861948 225.17921223470213 728.2213072064857 -0.6157529541331356 3.3631886700624083 2.3160299098123946 -0.16459352600706195 -2.7361039075056883 -0.030998290260179133 0.34566712900557184 -4.76132732641206 0.20624415453327974 0.0 0.0 0.0 -0.504283741551237 0.05268322062214763 -1.3105438904959634 1.4742895815222217 2.8511165903894438 6.064975802817455 0.775275100428738 -0.08749540809055942 -0.7913767051813688 0.0 0.0 0.0 -0.5338413760298025 0.09268738095567812 0.29453923466754045 0.9149806284887797 0.5691183432277022 -2.8190107053541977 -0.8427807679849575 0.09839434671068031 4.612930256346227 0.0 0.0 0.0
370.9190853882215 225.12285397803683 727.4323114306551 -0.6002060977132837 3.3614916411968845 2.34257083026975 -0.16435783299552806 -2.734300731675766 -0.031008674434164673 0.3525571555850029 -4.792837035252598 0.2045123842018498 0.0 0.0 0.0 -0.4946098450754387 0.053915320844859366 -1.303227651438741 1.4949036038672776 2.859512961978042 6.067976213894985 0.5629831239883996 -0.04279739558212587 -1.027388465401189 0.0 0.0 0.0 -0.5357225542721624 0.09284410832591981 0.2877651034342712 0.8875216245412376 0.5878600410371833 -2.8341999256530364 -1.128052471882815 0.024006767156862053 4.230481268992671 0.0 0.0 0.0
370.51868010169557 225.062605696317 726.5993373846017 -0.5824226408425325 3.3601908315980635 2.375602436824106 -0.1645116067352351 -2.7317932220238346 -0.03091654501921809 0.3603802277386574 -4.827007603729189 0.20240411421150653 0.0 0.0 0.0 -0.48464447399375155 0.05539830648068449 -1.29748419015621 1.515927741543162 2.867733578997288 6.070087206533192 0.32761209781087824 0.005794769109122132 -1.2912141570854994 0.0 0.0 0.0 -0.5369731443826986 0.09289025749565566 0.280676202188433 0.8543583566035778 0.6119553916920089 -2.856610901420945 -1.3873841522916757 -0.04575388497321863 3.876935686983965 0.0 0.0 0.0
370.07670375525163 224.99685879713363 725.7236938752658 -0.5621458896822542 3.3591699185290564 2.415710296760861 -0.1650558299899314 -2.7286030168678486 -0.03072221252498253 0.36911976189091333 -4.863768756556828 0.1999229870255308 0.0 0.0 0.0 -0.47448319108086195 0.05713631340738759 -1.2935182446866071 1.5373606521748875 2.8757173457736176 6.071138101389081 0.06799577388291432 0.05820820507938939 -1.5850199319940648 0.0 0.0 0.0 -0.5375770794791036 0.09282104168222903 0.2731714049472343 0.8147989710379385 0.6420051882544238 -2.8870290353745327 -1.6171997910958102 -0.1094735574495937 3.5565923963060597 0.0 0.0 0.0
369.592162309516 224.92372665608468 724.8073626027776 -0.5391219316238789 3.358262030916409 2.463400054902443 -0.16598874068851477 -2.724754272761217 -0.03042666611833294 0.37873628138227966 -4.903008511767354 0.1970837992670002 0.0 0.0 0.0 -0.4642399596429946 0.05912878881886614 -1.2915279454419508 1.5592051941006202 2.88341844889302 6.070996221132721 -0.2168451081609292 0.11426806843823338 -1.9108509403104579 0.0 0.0 0.0 -0.5375368290672826 0.09263439225264612 0.2651347919102905 0.7681735997519354 0.6785641771523587 -2.9261621830895232 -1.8145110804614952 -0.16585968551242056 3.2731460858071086 0.0 0.0 0.0
